<svg width="40" height="40" viewBox="0 0 40 40" fill="none" xmlns="http://www.w3.org/2000/svg">
<path d="M12.989 21.4823C14.4719 22.9565 17.0579 24.9999 20.0002 24.9999C22.9424 24.9999 25.5279 22.9565 27.0108 21.4823C27.4019 21.0936 27.5981 20.8985 27.7226 20.5168C27.8115 20.2444 27.8115 19.7556 27.7226 19.4833C27.5981 19.1015 27.4019 18.9064 27.0108 18.5176C25.5279 17.0434 22.9424 15 20.0002 15C17.0579 15 14.4719 17.0434 12.989 18.5176C12.5976 18.9067 12.4019 19.1014 12.2773 19.4833C12.1885 19.7556 12.1885 20.2444 12.2773 20.5168C12.4019 20.8986 12.5976 21.0932 12.989 21.4823Z" stroke="#2E2E2E" stroke-width="2" stroke-linecap="round" stroke-linejoin="round"/>
<path d="M18.3333 20C18.3333 20.9205 19.0795 21.6667 20 21.6667C20.9205 21.6667 21.6667 20.9205 21.6667 20C21.6667 19.0795 20.9205 18.3333 20 18.3333C19.0795 18.3333 18.3333 19.0795 18.3333 20Z" stroke="#2E2E2E" stroke-width="2" stroke-linecap="round" stroke-linejoin="round"/>
</svg>
