<svg width="40" height="40" viewBox="0 0 40 40" fill="none" xmlns="http://www.w3.org/2000/svg">
<path d="M10.8333 22.0833C10.8333 20.143 11.8536 18.4409 13.3869 17.4843C13.8039 14.2033 16.6057 11.6667 20 11.6667C23.3942 11.6667 26.1961 14.2033 26.6131 17.4843C28.1464 18.4409 29.1666 20.143 29.1666 22.0833C29.1666 24.9347 26.9635 27.2714 24.1666 27.4842L15.8333 27.5C13.0365 27.2714 10.8333 24.9347 10.8333 22.0833ZM24.0402 25.8223C25.9847 25.6744 27.5 24.0467 27.5 22.0833C27.5 20.7725 26.8236 19.5802 25.7309 18.8984L25.0595 18.4795L24.9597 17.6945C24.6446 15.215 22.524 13.3333 20 13.3333C17.4759 13.3333 15.3554 15.215 15.0402 17.6945L14.9404 18.4795L14.269 18.8984C13.1763 19.5802 12.5 20.7725 12.5 22.0833C12.5 24.0467 14.0153 25.6744 15.9597 25.8223L16.1041 25.8333H23.8958L24.0402 25.8223ZM20.8333 20H23.3333L20 24.1667L16.6666 20H19.1666V16.6667H20.8333V20Z" fill="#2E2E2E"/>
</svg>
