<svg width="20" height="17" viewBox="0 0 20 17" fill="none" xmlns="http://www.w3.org/2000/svg">
<path d="M0.833313 11.0833C0.833313 9.14299 1.85355 7.44091 3.38686 6.48432C3.80389 3.20332 6.6057 0.666656 9.99998 0.666656C13.3942 0.666656 16.1961 3.20332 16.6131 6.48432C18.1464 7.44091 19.1666 9.14299 19.1666 11.0833C19.1666 13.9347 16.9635 16.2714 14.1666 16.4842L5.83331 16.5C3.03646 16.2714 0.833313 13.9347 0.833313 11.0833ZM14.0402 14.8223C15.9847 14.6744 17.5 13.0467 17.5 11.0833C17.5 9.77249 16.8236 8.58016 15.7309 7.89841L15.0595 7.47949L14.9597 6.69447C14.6446 4.21502 12.524 2.33332 9.99998 2.33332C7.47595 2.33332 5.35537 4.21502 5.04023 6.69447L4.94045 7.47949L4.26905 7.89841C3.17628 8.58016 2.49998 9.77249 2.49998 11.0833C2.49998 13.0467 4.01525 14.6744 5.95973 14.8223L6.10415 14.8333H13.8958L14.0402 14.8223ZM10.8333 8.99999H13.3333L9.99998 13.1667L6.66665 8.99999H9.16665V5.66666H10.8333V8.99999Z" fill="#2E2E2E"/>
</svg>
